<svg xmlns="http://www.w3.org/2000/svg" xmlns:xlink="http://www.w3.org/1999/xlink" width="100" height="100" viewBox="0 0 100 100">
  <defs>
    <clipPath id="clip-custom_1">
      <rect width="100" height="100"/>
    </clipPath>
  </defs>
  <g id="custom_1" data-name="custom – 1" clip-path="url(#clip-custom_1)">
    <path id="Path_2" data-name="Path 2" d="M67.257,117.936l-4.88-6.749L39.054,78.926S61,68.919,60.8,53.484,50.772,32.005,39.054,32,21.246,41.273,21.576,51.344,30.854,65.681,38.62,65.176s11.116-4.1,10.972-11.692-7.713-10.453-11.371-9.4c-1.719.5-5.395,1.919-5.2,6.134s5.057,5.279,6.639,4.331" transform="translate(-17.237 -24.968)" fill="none" stroke="#000" stroke-linecap="round" stroke-width="6"/>
    <path id="Path_3" data-name="Path 3" d="M21.563,117.936l4.88-6.749,23.324-32.26S27.823,68.919,28.017,53.484,38.047,32.005,49.766,32s17.808,9.273,17.478,19.344S57.966,65.681,50.2,65.176s-11.116-4.1-10.972-11.692,7.713-10.453,11.371-9.4c1.719.5,5.395,1.919,5.2,6.134s-5.057,5.279-6.639,4.331" transform="translate(28.417 -24.968)" fill="none" stroke="#000" stroke-linecap="round" stroke-width="6"/>
  </g>
</svg>
